<svg xmlns="http://www.w3.org/2000/svg" viewBox="-11397 -5633.707 249.72 33.013">
  <defs>
    <style>
      .cls-1 {
        fill: #fff;
      }
    </style>
  </defs>
  <g id="Group_991" data-name="Group 991" transform="translate(-11443 -5686.307)">
    <path id="Path_366" data-name="Path 366" class="cls-1" d="M87.89,17.5v8.884c0,5.158-3.554,6.992-7.795,6.992-4.528,0-7.795-2.121-7.795-6.935V17.5h3.84v9c0,2.235,1.6,3.611,3.9,3.611a3.618,3.618,0,0,0,3.955-3.9V17.5Z" transform="translate(15.138 45.13)"/>
    <path id="Path_367" data-name="Path 367" class="cls-1" d="M114.65,17.5c3.21,0,5.1,2.178,5.1,4.471a4.122,4.122,0,0,1-2.694,3.84c1.6.8,2.063,2.751,4.3,7.336h-4.3c-1.662-3.324-2.293-6.362-4.413-6.362H111.5v6.362h-3.9V17.5Zm-3.095,6.419h2.063c1.089,0,2.121-.459,2.121-1.777,0-1.146-.745-1.777-2.235-1.777h-1.949v3.554Z" transform="translate(0.071 45.13)"/>
    <path id="Path_368" data-name="Path 368" class="cls-1" d="M143.663,17.5c3.668,0,5.158,2.178,5.158,3.9a3.452,3.452,0,0,1-2.121,3.095,4.045,4.045,0,0,1,3.324,4.012c0,1.777-.974,4.585-5.5,4.585H136.9V17.5ZM140.8,23.69h2.063c1.433,0,2.006-.86,2.006-1.719,0-.8-.573-1.662-2.006-1.662H140.8Zm0,6.591h2.178c2.178,0,2.923-.573,2.923-1.949,0-1.146-1.032-1.777-2.407-1.777H140.74v3.725Z" transform="translate(-12.436 45.13)"/>
    <path id="Path_369" data-name="Path 369" class="cls-1" d="M181.11,33.147h-4.184l-1.261-3.095h-6.992l-1.146,3.095H163.4L169.7,17.5h4.528Zm-9.17-11.921L169.647,27.3h4.814Z" transform="translate(-23.748 45.13)"/>
    <path id="Path_370" data-name="Path 370" class="cls-1" d="M215.219,33.147h-3.267L203.3,23.117v10.03h-3.9V17.5h3.553l8.368,9.572V17.5h3.9Z" transform="translate(-39.115 45.13)"/>
    <path id="Path_371" data-name="Path 371" class="cls-1" d="M252.4,33.147h-3.9V17.5h3.9Z" transform="translate(-60.073 45.13)"/>
    <path id="Path_372" data-name="Path 372" class="cls-1" d="M279.519,33.147h-3.267L267.6,23.117v10.03h-3.9V17.5h3.553l8.368,9.572V17.5h3.9Z" transform="translate(-66.561 45.13)"/>
    <path id="Path_373" data-name="Path 373" class="cls-1" d="M309.934,21.484A11.7,11.7,0,0,0,305,20.108c-1.376,0-2.293.516-2.293,1.261,0,2.35,7.967,1.719,7.967,7.164,0,2.98-2.522,4.757-6.018,4.757a10.433,10.433,0,0,1-5.617-1.49V28.419c2.235,1.49,3.611,2.006,5.33,2.006,1.49,0,2.293-.516,2.293-1.433,0-2.579-7.967-1.6-7.967-7.222,0-2.694,2.35-4.471,5.961-4.471a12.5,12.5,0,0,1,5.273,1.2Z" transform="translate(-81.501 45.215)"/>
    <path id="Path_374" data-name="Path 374" class="cls-1" d="M330.5,33.147h-3.9V17.5h3.9Z" transform="translate(-93.411 45.13)"/>
    <path id="Path_375" data-name="Path 375" class="cls-1" d="M355.947,21.8a13.107,13.107,0,0,0-5.846-1.433c-4.241,0-5.731,2.636-5.731,4.929,0,2.751,2.178,4.585,5.388,4.585a5.716,5.716,0,0,0,2.579-.573V27.474h-2.293V24.608h6.19v6.419c-1.146,1.2-4.069,2.121-6.591,2.121-5.445,0-9.342-3.324-9.342-8.024,0-4.757,3.84-8.024,9.4-8.024a15.23,15.23,0,0,1,6.19,1.261V21.8Z" transform="translate(-99.258 45.301)"/>
    <path id="Path_376" data-name="Path 376" class="cls-1" d="M391.89,33.147h-3.9v-6.3H380.2v6.3h-3.9V17.5h3.9v6.3h7.795V17.5h3.9Z" transform="translate(-114.625 45.13)"/>
    <path id="Path_377" data-name="Path 377" class="cls-1" d="M424.346,20.366h-5.674V33.147h-3.9V20.366H409.1V17.5h15.246Z" transform="translate(-128.626 45.13)"/>
    <path id="Path_378" data-name="Path 378" class="cls-1" d="M33.071,16.564h0l-2.808.573-1.146.229-5.961,1.2-3.5.688-.344.057-2.751-2.751H33.071l-2.808-.573A13.819,13.819,0,0,0,17.309,2.866L16.679,0h-.115l.573,2.866.229,1.146,1.2,5.9.688,3.5.057.344-2.751,2.751h0V10.775h0V0l-.573,2.866a13.766,13.766,0,0,0-13.125,12.9L0,16.392v.115H.057l2.808-.573L4.012,15.7l6.018-1.2,3.668-.745h.057l2.751,2.751H.057l2.866.573a13.626,13.626,0,0,0,12.9,13.068l.573,2.866h.115L15.933,30.2,15.7,29.058,14.5,23.1l-.688-3.554-.057-.229h0l2.751-2.751h0v5.789h0V33.013L17.08,30.2A13.635,13.635,0,0,0,30.147,17.252l2.866-.573Zm-4.012-.86-5.9-1.261-.344-.057,3.038-6.3A12.571,12.571,0,0,1,29.058,15.7ZM25.39,7.68l.459-.459-.229.63h0l-3.152,6.477L19.43,13.7h-.057l-.057.057.057-.115h0L25.39,7.68ZM18.742,9.858l-1.2-5.789a12.5,12.5,0,0,1,7.68,3.439ZM7.336,7.336Zm-3.267,8.2a12.123,12.123,0,0,1,3.5-7.68l2.35,6.477Zm9.572-1.891Zm0,0L7.68,7.68l-.344-.344.459.172h0l6.534,3.152Zm.8-3.668-.057.344-6.3-3.038A12.305,12.305,0,0,1,15.7,4.012ZM4.012,17.366l5.9,1.261.4.057-3.038,6.3A12.825,12.825,0,0,1,4.012,17.366ZM7.68,25.39l-.459.459.172-.516h.057L10.6,18.742l3.038.63h0l.115-.115h0l-.057.057h0l-.057.057L7.68,25.39Zm6.648-2.178,1.2,5.846a12.5,12.5,0,0,1-7.68-3.439Zm4.3-.057.057-.344,6.247,3.038a12.506,12.506,0,0,1-7.566,3.21Zm6.591,2.465h0l-6.477-3.095.63-3.095h0l6.018,6.018.4.4Zm.63.229Zm-.229-.63-2.407-6.477,5.846-1.2A12.615,12.615,0,0,1,25.62,25.218Z" transform="translate(46 52.6)"/>
  </g>
</svg>
